<svg xmlns="http://www.w3.org/2000/svg" width="36" height="36" fill="none" viewBox="0 0 36 36">
  <path fill="#5A5A5A" d="M17.566 25.403c-1.648-.163-3.011-.74-4.196-1.927-1.273-1.276-1.96-2.934-1.929-4.748a6.526 6.526 0 0 1 2.034-4.62 6.54 6.54 0 0 1 4.712-1.815 6.503 6.503 0 0 1 4.606 2.072 6.539 6.539 0 0 1-.61 9.53c-.202.166-.431.32-.621.498l-.017.015c-.106.004-.24.11-.336.163-.916.51-1.922.815-2.976.837-.22.005-.444-.008-.667-.005Zm.737-2.406a4.156 4.156 0 1 0-.589-8.292 4.156 4.156 0 0 0 .59 8.292Z"/>
  <path fill="#B6B6B6" d="M23.202 9.684a6.52 6.52 0 0 1 1.812.201c.52 1.118.902 2.447 1.235 3.63.302.227.845.757 1.113 1.023 1.53 1.51 2.61 3.154 3.06 5.27.89 4.198-1.634 7.386-5.718 8.213.054-.11.115-.223.176-.33.284-.504.525-1.02.767-1.545 1.129-.457 2.312-1.284 2.844-2.38 1.886-3.884-1.279-7.853-4.381-9.92-.441-.293-.835-.524-1.276-.794-.449-.276-.84-.616-1.317-.85a7.588 7.588 0 0 0-5.857-.495c-1.734.554-3.42 1.962-4.26 3.568.138-.458.255-.999.377-1.469.122-.471.263-.937.422-1.398.064-.19.158-.487.246-.66.086-.169.412-.364.58-.476a8.91 8.91 0 0 1 2.27-1.078c.337-.104.704-.174 1.047-.27l.008.033c-.196.324-.422.62-.652.92.7.016 1.717.148 2.442.214l1.37.128c.355.033.787.063 1.131.148-.16-.363-.312-.743-.465-1.11a2.55 2.55 0 0 1 .324-.115c1.207.288 2.683 1.213 3.701 1.926a25.638 25.638 0 0 0-.999-2.384Z"/>
  <path fill="#B6B6B6" d="M9.766 13.45c.195-.616.343-1.239.565-1.849.83-2.28 1.767-4.421 3.656-6.002 2.87-2.401 6.57-1.851 8.957.891.189.217.367.447.544.675-.395.015-.788.029-1.182.059-.246.018-.497.063-.739.083-.842-.942-2.097-1.622-3.368-1.687-1.233-.063-2.542.557-3.435 1.368-2.578 2.344-4.106 8.046-4.273 11.409a7.568 7.568 0 0 0 .63 3.437c-.678-.618-1.621-1.705-2.085-2.486-.208-.35.063-2.678.146-3.137-.439.536-.682.859-1.084 1.436-.257-.453-.485-1.368-.583-1.883.531-.741 1.579-1.713 2.25-2.313Z"/>
  <path fill="#242424" d="M7.515 15.764c.531-.741 1.579-1.713 2.25-2.313-.071.343-.154.687-.239 1.027a23.794 23.794 0 0 0-.344 1.733c-.439.536-.682.858-1.084 1.436-.257-.453-.485-1.368-.583-1.883Z"/>
  <path fill="#5A5A5A" d="m10.184 23.781-.017-.021c-.17-.205-.483-.503-.677-.7a19.389 19.389 0 0 1-.959-1.04c-2.017-2.37-3.342-4.992-3.103-8.187.226-3.027 2.345-5.235 5.24-5.921.305-.073.603-.115.909-.176a8.483 8.483 0 0 0-.574 1.018c-.118.242-.238.521-.374.75-.53.205-.928.37-1.414.674-2.545 1.593-2.706 4.803-1.686 7.34.9 2.24 2.49 4.038 4.296 5.59.226.194.444.593.67.809a7.634 7.634 0 0 0 2.748 1.89c-.965.241-1.655.296-2.645.276-.69-.083-.94-.053-1.686-.276-.286-.614-.521-1.38-.728-2.026Z"/>
  <path fill="#242424" d="M10.184 23.781c.395.191.907.913 1.239 1.25.404.41.731.687 1.175 1.052-.69-.083-.94-.053-1.686-.276-.286-.614-.521-1.38-.728-2.026Zm15.904-3.546c.07.172.251.874.311 1.088l.621 2.206c-.294-.062-.593-.145-.885-.22-.744 2.595-1.825 5.086-3.88 6.926-2.779 2.49-6.656 2.18-9.075-.639a8.794 8.794 0 0 1-.79-.998c.716.02 1.226-.027 1.924-.062.735.746 1.442 1.343 2.47 1.643 1.862.542 3.549-.177 4.85-1.511 1.584-1.622 2.361-3.59 2.99-5.717-.238-.073-.591-.145-.841-.203.08-.103.157-.19.247-.284.696-.733 1.379-1.48 2.058-2.229ZM22.829 7.663c.16-.018.375-.012.54-.01 3.522.04 6.807 2.21 7.178 5.932.141 1.407-.078 2.438-.48 3.776-.32-.61-.695-1.188-1.119-1.73.042-.24.072-.482.091-.725.093-1.306-.22-2.688-1.093-3.694-1.635-1.995-4.48-2.335-6.838-1.745-.54.136-1.066.302-1.595.472.103.262.27.609.39.868-.992-.16-2.287-.237-3.316-.346.625-.918 1.293-1.82 1.936-2.73.115.264.225.543.338.81 1.267-.504 2.606-.8 3.968-.878Z"/>
  <path fill="#B6B6B6" d="M5.872 18.817c.298.586.585 1.167.947 1.717.05.076.112.17.153.25-.208 3.646 2.251 5.602 5.685 5.778 1.693.087 3.41-.392 4.91-1.159.222-.003.446.01.666.005 1.054-.022 2.06-.326 2.976-.837.096-.053.23-.159.337-.163-.448.472-.88.812-1.4 1.204-2.039 1.543-4.315 2.41-6.866 2.507-3.947.15-7.763-2.238-7.868-6.499-.026-1.044.15-1.805.46-2.803Z"/>
  <path fill="#5A5A5A" d="M24.045 14.379c.426.3.837.621 1.23.963.364.309 1.457 1.316 1.624 1.737.154.392.157 1.621.193 2.074.186-.22.471-.665.625-.918.266.422.58 1.294.677 1.779-.414.554-.96 1.15-1.428 1.652-.054-.19-.117-.396-.16-.586-.158-.6-.354-1.201-.499-1.8-.302.353-.613.698-.933 1.034a7.65 7.65 0 0 0 .078-.449 7.502 7.502 0 0 0-1.407-5.486Z"/>
  <path fill="#242424" d="M27.717 18.235c.266.422.58 1.294.677 1.779-.414.554-.959 1.15-1.428 1.652-.054-.19-.117-.396-.16-.586.173-.289.25-1.557.286-1.927.186-.221.471-.665.625-.918Z"/>
  <path fill="#5A5A5A" d="M17.017 27.881c1.12-.462 2.2-.993 3.174-1.716.048-.036.185-.138.233-.16.942-.424 1.841-.892 2.6-1.608.39-.361.66-.682 1.001-1.075-.228.892-.988 2.699-1.51 3.435-.168.311-.736 1.097-.99 1.352a14.894 14.894 0 0 1-1.71-.343c-.187-.015-.931.13-1.202.14a17.31 17.31 0 0 1-1.596-.025Z"/>
  <path fill="#B6B6B6" d="M19.814 27.766c.233-.119.94-.24 1.245-.376.24-.108.491-.192.74-.32.162-.085.556-.276.715-.312-.167.31-.735 1.096-.99 1.351a14.896 14.896 0 0 1-1.71-.343Z"/>
  <path fill="#5A5A5A" d="M14.63 7.802c.84.19 1.886.462 2.673.81-.184.281-.74 1.079-.953 1.345l-.008-.033c-.063-.08-.334-.152-.447-.188a11.728 11.728 0 0 0-2.296-.496c.285-.46.653-1.048 1.032-1.438Z"/>
</svg>
